<svg width="21" height="28" viewBox="0 0 21 28" fill="none" xmlns="http://www.w3.org/2000/svg">
<path d="M20.1033 23.71C19.4518 21.5769 19.115 19.3603 19.1033 17.13V11.81C19.1461 9.93726 18.5861 8.10031 17.5058 6.56994C16.4256 5.03957 14.8822 3.89677 13.1033 3.31V3C13.1033 2.20435 12.7872 1.44129 12.2246 0.87868C11.662 0.316071 10.8989 0 10.1033 0C9.30761 0 8.54455 0.316071 7.98194 0.87868C7.41933 1.44129 7.10326 2.20435 7.10326 3V3.29C5.30889 3.86583 3.74903 5.00682 2.65676 6.54249C1.56449 8.07816 0.998459 9.92604 1.04326 11.81V17.13C1.03648 19.3607 0.699495 21.578 0.0432575 23.71C-0.0032532 23.8629 -0.012416 24.0248 0.0165369 24.182C0.0454899 24.3393 0.111714 24.4873 0.209659 24.6136C0.307603 24.74 0.434412 24.841 0.579454 24.9082C0.724495 24.9754 0.883542 25.0069 1.04326 25H6.24326C6.46439 25.8565 6.96319 26.6155 7.66162 27.1583C8.36004 27.7011 9.2187 27.9971 10.1033 28C10.9827 27.9905 11.8344 27.6915 12.5268 27.1492C13.2191 26.6069 13.7134 25.8515 13.9333 25H19.1033C19.2585 25 19.4116 24.9639 19.5505 24.8944C19.6893 24.825 19.8101 24.7242 19.9033 24.6C20.0048 24.4781 20.0759 24.3339 20.1107 24.1791C20.1454 24.0244 20.1429 23.8636 20.1033 23.71ZM9.10326 3C9.10326 2.73478 9.20861 2.48043 9.39615 2.29289C9.58369 2.10536 9.83804 2 10.1033 2C10.3685 2 10.6228 2.10536 10.8104 2.29289C10.9979 2.48043 11.1033 2.73478 11.1033 3H9.10326ZM10.1033 26C9.75593 25.9962 9.41559 25.9019 9.11575 25.7266C8.81591 25.5512 8.56691 25.3008 8.39326 25H11.8733C11.6945 25.3097 11.4361 25.5658 11.1248 25.7417C10.8135 25.9175 10.4607 26.0067 10.1033 26ZM13.1033 23H2.34326C2.80608 21.0776 3.04103 19.1074 3.04326 17.13V11.81C3.04326 8.06 5.77326 5 9.10326 5H11.0033C14.3633 5 17.1033 8.06 17.1033 11.81V17.13C17.1055 19.1074 17.3404 21.0776 17.8033 23H13.1033Z" fill="#959595"/>
</svg>
